<svg width="29" height="29" viewBox="0 0 29 29" fill="none" xmlns="http://www.w3.org/2000/svg">
<circle cx="14.5" cy="14.5" r="12.5" fill="#FAF9F9" stroke="#E49D3F" stroke-width="4"/>
<path d="M21.059 15.0838L21.0589 15.0838L17.3559 18.9536C17.3559 18.9536 17.3559 18.9536 17.3559 18.9536C17.0416 19.2821 16.5282 19.2821 16.214 18.9536L21.059 15.0838ZM21.059 15.0838C21.2144 14.9213 21.291 14.7095 21.291 14.5C21.291 14.2907 21.2146 14.0789 21.0591 13.9162L21.059 13.9162L17.3561 10.0465C17.3561 10.0465 17.356 10.0465 17.356 10.0464C17.0417 9.71786 16.5283 9.71783 16.214 10.0465C15.9046 10.3699 15.9047 10.8907 16.2141 11.2142L16.2141 11.2142L19.3583 14.5L16.214 17.7858L16.2139 17.7858M21.059 15.0838L16.2139 17.7858M16.2139 17.7858C15.9046 18.1093 15.9045 18.6302 16.214 18.9536L16.2139 17.7858Z" fill="#E49D3F" stroke="#E49D3F" stroke-width="0.4"/>
<path d="M8.0321 13.9162L8.03214 13.9162L11.7351 10.0464C11.7351 10.0464 11.7351 10.0464 11.7351 10.0464C12.0494 9.71791 12.5628 9.71786 12.8771 10.0464L8.0321 13.9162ZM8.0321 13.9162C7.87666 14.0787 7.80009 14.2905 7.80009 14.5C7.80009 14.7093 7.87646 14.9211 8.03197 15.0838L8.03202 15.0838L11.735 18.9535C11.735 18.9535 11.735 18.9535 11.735 18.9536C12.0493 19.2821 12.5628 19.2822 12.877 18.9535C13.1864 18.6301 13.1864 18.1093 12.877 17.7858L12.877 17.7858L9.73277 14.5L12.8771 11.2142L12.8771 11.2142M8.0321 13.9162L12.8771 11.2142M12.8771 11.2142C13.1865 10.8907 13.1866 10.3698 12.8771 10.0464L12.8771 11.2142Z" fill="#E49D3F" stroke="#E49D3F" stroke-width="0.4"/>
</svg>
